{"glyphs":{"0":{"ha":1190,"x_min":0,"x_max":992,"o":"m 198 794 l 794 794 l 794 198 l 198 198 l 198 0 l 794 0 l 794 198 l 992 198 l 992 992 l 0 992 l 0 595 l 198 595 l 198 794 "},"1":{"ha":1190,"x_min":0,"x_max":992,"o":"m 595 198 l 595 397 l 794 397 l 794 595 l 992 595 l 992 992 l 0 992 l 0 794 l 794 794 l 794 595 l 595 595 l 595 397 l 397 397 l 397 595 l 198 595 l 198 397 l 397 397 l 397 198 l 0 198 l 0 0 l 397 0 l 397 198 l 595 198 l 595 0 l 794 0 l 794 198 l 595 198 "},"2":{"ha":1190,"x_min":0,"x_max":992,"o":"m 198 198 l 198 0 l 794 0 l 794 198 l 992 198 l 992 992 l 0 992 l 0 794 l 794 794 l 794 198 l 198 198 "},"3":{"ha":1190,"x_min":0,"x_max":992,"o":"m 992 397 l 992 992 l 0 992 l 0 794 l 794 794 l 794 397 l 992 397 m 198 198 l 198 0 l 397 0 l 397 198 l 595 198 l 595 595 l 397 595 l 397 198 l 198 198 "},"4":{"ha":1190,"x_min":0,"x_max":992,"o":"m 198 198 l 198 0 l 794 0 l 794 198 l 992 198 l 992 794 l 595 794 l 595 992 l 397 992 l 397 794 l 0 794 l 0 397 l 198 397 l 198 595 l 794 595 l 794 198 l 198 198 "},"5":{"ha":1190,"x_min":0,"x_max":992,"o":"m 0 992 l 0 794 l 397 794 l 397 198 l 0 198 l 0 0 l 992 0 l 992 198 l 595 198 l 595 794 l 992 794 l 992 992 l 0 992 "},"6":{"ha":1190,"x_min":0,"x_max":992,"o":"m 0 198 l 0 0 l 198 0 l 198 198 l 397 198 l 397 397 l 595 397 l 595 0 l 794 0 l 794 595 l 992 595 l 992 794 l 794 794 l 794 992 l 595 992 l 595 794 l 0 794 l 0 595 l 397 595 l 397 397 l 198 397 l 198 198 l 0 198 "},"7":{"ha":1190,"x_min":0,"x_max":992,"o":"m 397 595 l 794 595 l 794 397 l 992 397 l 992 794 l 397 794 l 397 992 l 198 992 l 198 794 l 0 794 l 0 595 l 198 595 l 198 0 l 397 0 l 397 595 "},"8":{"ha":1190,"x_min":0,"x_max":992,"o":"m 198 992 l 198 794 l 595 794 l 595 198 l 0 198 l 0 0 l 992 0 l 992 198 l 794 198 l 794 992 l 198 992 "},"9":{"ha":1190,"x_min":0,"x_max":992,"o":"m 992 0 l 992 992 l 0 992 l 0 794 l 794 794 l 794 595 l 0 595 l 0 397 l 794 397 l 794 198 l 0 198 l 0 0 l 992 0 "}," ":{"ha":794,"x_min":0,"x_max":0,"o":""},"!":{"ha":397,"x_min":0,"x_max":198,"o":"m 0 198 l 0 0 l 198 0 l 198 198 l 0 198 m 0 992 l 0 397 l 198 397 l 198 992 l 0 992 "},"\"":{"ha":1190,"x_min":0,"x_max":992,"o":"m 198 198 l 198 0 l 794 0 l 794 198 l 992 198 l 992 992 l 0 992 l 0 794 l 794 794 l 794 198 l 198 198 m 794 1389 l 794 1190 l 992 1190 l 992 1389 l 794 1389 m 397 1389 l 397 1190 l 595 1190 l 595 1389 l 397 1389 "},"#":{"ha":992,"x_min":0,"x_max":794,"o":"m 198 397 l 198 0 l 397 0 l 397 397 l 198 397 m 794 397 l 794 794 l 0 794 l 0 595 l 595 595 l 595 397 l 794 397 "},"$":{"ha":1190,"x_min":0,"x_max":992,"o":"m 397 794 l 397 595 l 0 595 l 0 198 l 198 198 l 198 397 l 794 397 l 794 198 l 397 198 l 397 0 l 794 0 l 794 198 l 992 198 l 992 595 l 595 595 l 595 794 l 397 794 "},"%":{"ha":794,"x_min":0,"x_max":595,"o":"m 397 397 l 595 397 l 595 595 l 0 595 l 0 397 l 198 397 l 198 198 l 0 198 l 0 0 l 595 0 l 595 198 l 397 198 l 397 397 "},"&":{"ha":992,"x_min":0,"x_max":794,"o":"m 397 794 l 397 595 l 0 595 l 0 397 l 198 397 l 198 198 l 0 198 l 0 0 l 198 0 l 198 198 l 397 198 l 397 0 l 595 0 l 595 397 l 794 397 l 794 595 l 595 595 l 595 794 l 397 794 "},"'":{"ha":992,"x_min":0,"x_max":794,"o":"m 397 397 l 595 397 l 595 198 l 794 198 l 794 595 l 397 595 l 397 794 l 198 794 l 198 595 l 0 595 l 0 397 l 198 397 l 198 0 l 397 0 l 397 397 "},"(":{"ha":992,"x_min":0,"x_max":794,"o":"m 595 198 l 595 595 l 198 595 l 198 397 l 397 397 l 397 198 l 0 198 l 0 0 l 794 0 l 794 198 l 595 198 "},")":{"ha":794,"x_min":0,"x_max":595,"o":"m 595 0 l 595 992 l 0 992 l 0 794 l 397 794 l 397 595 l 0 595 l 0 397 l 397 397 l 397 198 l 0 198 l 0 0 l 595 0 "},"*":{"ha":1190,"x_min":0,"x_max":992,"o":"m 198 198 l 198 0 l 595 0 l 595 198 l 794 198 l 794 595 l 992 595 l 992 794 l 397 794 l 397 992 l 198 992 l 198 595 l 0 595 l 0 397 l 198 397 l 198 595 l 595 595 l 595 198 l 198 198 m 794 1389 l 794 1190 l 992 1190 l 992 1389 l 794 1389 m 397 1389 l 397 1190 l 595 1190 l 595 1389 l 397 1389 "},",":{"ha":1190,"x_min":0,"x_max":992,"o":"m 794 198 l 794 397 l 992 397 l 992 794 l 595 794 l 595 992 l 397 992 l 397 794 l 0 794 l 0 595 l 794 595 l 794 397 l 198 397 l 198 198 l 0 198 l 0 0 l 198 0 l 198 198 l 397 198 l 397 0 l 595 0 l 595 198 l 794 198 l 794 0 l 992 0 l 992 198 l 794 198 "},"-":{"ha":1190,"x_min":0,"x_max":992,"o":"m 595 595 l 992 595 l 992 794 l 595 794 l 595 992 l 397 992 l 397 794 l 0 794 l 0 595 l 397 595 l 397 0 l 595 0 l 595 595 m 0 397 l 0 198 l 198 198 l 198 397 l 0 397 m 794 397 l 794 198 l 992 198 l 992 397 l 794 397 "},".":{"ha":1190,"x_min":0,"x_max":992,"o":"m 198 992 l 198 198 l 0 198 l 0 0 l 198 0 l 198 198 l 397 198 l 397 992 l 198 992 m 794 397 l 794 992 l 595 992 l 595 0 l 794 0 l 794 198 l 992 198 l 992 397 l 794 397 "},"/":{"ha":1190,"x_min":0,"x_max":992,"o":"m 595 397 l 595 595 l 794 595 l 794 794 l 992 794 l 992 992 l 794 992 l 794 794 l 595 794 l 595 595 l 397 595 l 397 794 l 198 794 l 198 595 l 397 595 l 397 397 l 198 397 l 198 198 l 0 198 l 0 0 l 198 0 l 198 198 l 397 198 l 397 397 l 595 397 l 595 198 l 794 198 l 794 397 l 595 397 "},":":{"ha":1190,"x_min":0,"x_max":992,"o":"m 198 198 l 198 0 l 595 0 l 595 198 l 794 198 l 794 595 l 992 595 l 992 794 l 397 794 l 397 992 l 198 992 l 198 595 l 0 595 l 0 397 l 198 397 l 198 595 l 595 595 l 595 198 l 198 198 "},";":{"ha":992,"x_min":0,"x_max":794,"o":"m 595 595 l 595 397 l 397 397 l 397 198 l 198 198 l 198 992 l 0 992 l 0 0 l 397 0 l 397 198 l 595 198 l 595 397 l 794 397 l 794 595 l 595 595 "},"=":{"ha":1190,"x_min":0,"x_max":992,"o":"m 595 595 l 992 595 l 992 794 l 595 794 l 595 992 l 397 992 l 397 794 l 0 794 l 0 595 l 397 595 l 397 0 l 595 0 l 595 595 m 0 397 l 0 198 l 198 198 l 198 397 l 0 397 m 794 397 l 794 198 l 992 198 l 992 397 l 794 397 m 794 1389 l 794 1190 l 992 1190 l 992 1389 l 794 1389 m 397 1389 l 397 1190 l 595 1190 l 595 1389 l 397 1389 "},">":{"ha":397,"x_min":0,"x_max":198,"o":"m 0 198 l 0 0 l 198 0 l 198 198 l 0 198 "},"?":{"ha":1190,"x_min":0,"x_max":992,"o":"m 397 595 l 397 397 l 794 397 l 794 595 l 992 595 l 992 794 l 794 794 l 794 992 l 198 992 l 198 794 l 0 794 l 0 595 l 198 595 l 198 794 l 794 794 l 794 595 l 397 595 m 397 198 l 397 0 l 595 0 l 595 198 l 397 198 "},"A":{"ha":1190,"x_min":0,"x_max":992,"o":"m 0 198 l 0 0 l 397 0 l 397 198 l 595 198 l 595 397 l 992 397 l 992 595 l 595 595 l 595 794 l 992 794 l 992 992 l 0 992 l 0 794 l 397 794 l 397 595 l 0 595 l 0 397 l 397 397 l 397 198 l 0 198 m 794 1389 l 794 1190 l 992 1190 l 992 1389 l 794 1389 m 397 1389 l 397 1190 l 595 1190 l 595 1389 l 397 1389 "},"B":{"ha":1190,"x_min":0,"x_max":992,"o":"m 0 992 l 0 794 l 794 794 l 794 198 l 0 198 l 0 0 l 992 0 l 992 992 l 0 992 m 794 1389 l 794 1190 l 992 1190 l 992 1389 l 794 1389 m 397 1389 l 397 1190 l 595 1190 l 595 1389 l 397 1389 "},"C":{"ha":1190,"x_min":0,"x_max":992,"o":"m 198 595 l 198 992 l 0 992 l 0 595 l 198 595 l 198 397 l 397 397 l 397 595 l 198 595 m 397 198 l 397 0 l 794 0 l 794 198 l 992 198 l 992 992 l 794 992 l 794 198 l 397 198 m 794 1389 l 794 1190 l 992 1190 l 992 1389 l 794 1389 m 397 1389 l 397 1190 l 595 1190 l 595 1389 l 397 1389 "},"D":{"ha":1190,"x_min":0,"x_max":992,"o":"m 0 992 l 0 794 l 397 794 l 397 992 l 0 992 m 0 595 l 0 397 l 397 397 l 397 595 l 0 595 m 794 794 l 794 397 l 595 397 l 595 198 l 0 198 l 0 0 l 595 0 l 595 198 l 794 198 l 794 397 l 992 397 l 992 794 l 794 794 m 794 1389 l 794 1190 l 992 1190 l 992 1389 l 794 1389 m 397 1389 l 397 1190 l 595 1190 l 595 1389 l 397 1389 "},"E":{"ha":992,"x_min":0,"x_max":794,"o":"m 595 0 l 595 595 l 794 595 l 794 794 l 595 794 l 595 595 l 198 595 l 198 397 l 0 397 l 0 198 l 198 198 l 198 397 l 397 397 l 397 0 l 595 0 "},"F":{"ha":1190,"x_min":0,"x_max":992,"o":"m 198 992 l 198 198 l 0 198 l 0 0 l 198 0 l 198 198 l 397 198 l 397 992 l 198 992 m 794 198 l 794 992 l 595 992 l 595 198 l 794 198 l 794 0 l 992 0 l 992 198 l 794 198 m 794 1389 l 794 1190 l 992 1190 l 992 1389 l 794 1389 m 397 1389 l 397 1190 l 595 1190 l 595 1389 l 397 1389 "},"G":{"ha":1190,"x_min":0,"x_max":992,"o":"m 595 198 l 992 198 l 992 397 l 595 397 l 595 595 l 992 595 l 992 794 l 595 794 l 595 992 l 397 992 l 397 794 l 0 794 l 0 595 l 397 595 l 397 397 l 0 397 l 0 198 l 397 198 l 397 0 l 595 0 l 595 198 m 794 1389 l 794 1190 l 992 1190 l 992 1389 l 794 1389 m 397 1389 l 397 1190 l 595 1190 l 595 1389 l 397 1389 "},"H":{"ha":1190,"x_min":0,"x_max":992,"o":"m 0 595 l 0 397 l 198 397 l 198 595 l 397 595 l 397 794 l 794 794 l 794 198 l 397 198 l 397 0 l 794 0 l 794 198 l 992 198 l 992 992 l 198 992 l 198 595 l 0 595 m 794 1389 l 794 1190 l 992 1190 l 992 1389 l 794 1389 m 397 1389 l 397 1190 l 595 1190 l 595 1389 l 397 1389 "},"P":{"ha":1190,"x_min":0,"x_max":992,"o":"m 397 198 l 397 595 l 794 595 l 794 397 l 992 397 l 992 794 l 397 794 l 397 992 l 198 992 l 198 794 l 0 794 l 0 595 l 198 595 l 198 198 l 397 198 l 397 0 l 794 0 l 794 198 l 397 198 m 794 1389 l 794 1190 l 992 1190 l 992 1389 l 794 1389 m 397 1389 l 397 1190 l 595 1190 l 595 1389 l 397 1389 "},"Q":{"ha":1190,"x_min":0,"x_max":992,"o":"m 397 595 l 397 794 l 794 794 l 794 198 l 198 198 l 198 0 l 794 0 l 794 198 l 992 198 l 992 992 l 198 992 l 198 595 l 0 595 l 0 397 l 198 397 l 198 595 l 397 595 l 397 397 l 595 397 l 595 595 l 397 595 m 794 1389 l 794 1190 l 992 1190 l 992 1389 l 794 1389 m 397 1389 l 397 1190 l 595 1190 l 595 1389 l 397 1389 "},"R":{"ha":1190,"x_min":0,"x_max":992,"o":"m 794 198 l 794 595 l 992 595 l 992 992 l 0 992 l 0 794 l 794 794 l 794 595 l 595 595 l 595 397 l 198 397 l 198 198 l 0 198 l 0 0 l 198 0 l 198 198 l 794 198 l 794 0 l 992 0 l 992 198 l 794 198 m 794 1389 l 794 1190 l 992 1190 l 992 1389 l 794 1389 m 397 1389 l 397 1190 l 595 1190 l 595 1389 l 397 1389 "},"S":{"ha":992,"x_min":0,"x_max":794,"o":"m 595 397 l 595 595 l 198 595 l 198 992 l 0 992 l 0 0 l 198 0 l 198 397 l 595 397 l 595 198 l 794 198 l 794 397 l 595 397 m 595 1389 l 595 1190 l 794 1190 l 794 1389 l 595 1389 m 198 1389 l 198 1190 l 397 1190 l 397 1389 l 198 1389 "},"T":{"ha":1190,"x_min":0,"x_max":992,"o":"m 397 992 l 397 794 l 0 794 l 0 595 l 397 595 l 397 397 l 198 397 l 198 198 l 0 198 l 0 0 l 198 0 l 198 198 l 397 198 l 397 397 l 595 397 l 595 595 l 794 595 l 794 198 l 595 198 l 595 0 l 794 0 l 794 198 l 992 198 l 992 794 l 595 794 l 595 992 l 397 992 m 794 1389 l 794 1190 l 992 1190 l 992 1389 l 794 1389 m 397 1389 l 397 1190 l 595 1190 l 595 1389 l 397 1389 "},"V":{"ha":1190,"x_min":0,"x_max":992,"o":"m 198 794 l 198 992 l 0 992 l 0 198 l 198 198 l 198 0 l 992 0 l 992 198 l 198 198 l 198 595 l 992 595 l 992 794 l 198 794 m 794 1389 l 794 1190 l 992 1190 l 992 1389 l 794 1389 m 397 1389 l 397 1190 l 595 1190 l 595 1389 l 397 1389 "},"W":{"ha":1190,"x_min":0,"x_max":992,"o":"m 0 992 l 0 794 l 992 794 l 992 992 l 0 992 m 0 198 l 0 0 l 397 0 l 397 198 l 595 198 l 595 397 l 992 397 l 992 595 l 0 595 l 0 397 l 397 397 l 397 198 l 0 198 m 794 1389 l 794 1190 l 992 1190 l 992 1389 l 794 1389 m 397 1389 l 397 1190 l 595 1190 l 595 1389 l 397 1389 "},"X":{"ha":1190,"x_min":0,"x_max":992,"o":"m 198 198 l 198 0 l 595 0 l 595 198 l 794 198 l 794 595 l 992 595 l 992 794 l 794 794 l 794 992 l 595 992 l 595 794 l 397 794 l 397 992 l 198 992 l 198 794 l 0 794 l 0 595 l 198 595 l 198 397 l 397 397 l 397 595 l 595 595 l 595 198 l 198 198 m 794 1389 l 794 1190 l 992 1190 l 992 1389 l 794 1389 m 397 1389 l 397 1190 l 595 1190 l 595 1389 l 397 1389 "},"Z":{"ha":1190,"x_min":0,"x_max":992,"o":"m 0 992 l 0 595 l 198 595 l 198 992 l 0 992 m 397 992 l 397 595 l 595 595 l 595 992 l 397 992 m 198 198 l 198 0 l 794 0 l 794 198 l 992 198 l 992 992 l 794 992 l 794 198 l 198 198 m 794 1389 l 794 1190 l 992 1190 l 992 1389 l 794 1389 m 397 1389 l 397 1190 l 595 1190 l 595 1389 l 397 1389 "},"]":{"ha":1190,"x_min":0,"x_max":992,"o":"m 595 992 l 595 794 l 397 794 l 397 595 l 198 595 l 198 397 l 0 397 l 0 0 l 992 0 l 992 397 l 794 397 l 794 198 l 198 198 l 198 397 l 397 397 l 397 595 l 595 595 l 595 794 l 794 794 l 794 992 l 595 992 "},"^":{"ha":1190,"x_min":0,"x_max":992,"o":"m 794 397 l 794 595 l 595 595 l 595 794 l 397 794 l 397 992 l 198 992 l 198 794 l 0 794 l 0 595 l 198 595 l 198 794 l 397 794 l 397 595 l 595 595 l 595 397 l 794 397 l 794 198 l 992 198 l 992 397 l 794 397 "},"_":{"ha":1190,"x_min":0,"x_max":992,"o":"m 0 0 l 992 0 l 992 992 l 0 992 l 0 0 m 198 198 l 198 794 l 794 794 l 794 198 l 198 198 "},"a":{"ha":1190,"x_min":0,"x_max":992,"o":"m 0 198 l 0 0 l 397 0 l 397 198 l 595 198 l 595 397 l 992 397 l 992 595 l 595 595 l 595 794 l 992 794 l 992 992 l 0 992 l 0 794 l 397 794 l 397 595 l 0 595 l 0 397 l 397 397 l 397 198 l 0 198 "},"b":{"ha":1190,"x_min":0,"x_max":992,"o":"m 0 992 l 0 794 l 794 794 l 794 198 l 0 198 l 0 0 l 992 0 l 992 992 l 0 992 "},"c":{"ha":1190,"x_min":0,"x_max":992,"o":"m 198 595 l 198 992 l 0 992 l 0 595 l 198 595 l 198 397 l 397 397 l 397 595 l 198 595 m 397 198 l 397 0 l 794 0 l 794 198 l 992 198 l 992 992 l 794 992 l 794 198 l 397 198 "},"d":{"ha":1190,"x_min":0,"x_max":992,"o":"m 0 992 l 0 794 l 397 794 l 397 992 l 0 992 m 0 595 l 0 397 l 397 397 l 397 595 l 0 595 m 794 794 l 794 397 l 595 397 l 595 198 l 0 198 l 0 0 l 595 0 l 595 198 l 794 198 l 794 397 l 992 397 l 992 794 l 794 794 "},"e":{"ha":1190,"x_min":0,"x_max":992,"o":"m 595 0 l 595 595 l 794 595 l 794 794 l 992 794 l 992 992 l 794 992 l 794 794 l 397 794 l 397 595 l 198 595 l 198 397 l 0 397 l 0 198 l 198 198 l 198 397 l 397 397 l 397 0 l 595 0 "},"f":{"ha":1190,"x_min":0,"x_max":992,"o":"m 198 992 l 198 198 l 0 198 l 0 0 l 198 0 l 198 198 l 397 198 l 397 992 l 198 992 m 794 198 l 794 992 l 595 992 l 595 198 l 794 198 l 794 0 l 992 0 l 992 198 l 794 198 "},"g":{"ha":1190,"x_min":0,"x_max":992,"o":"m 595 198 l 992 198 l 992 397 l 595 397 l 595 595 l 992 595 l 992 794 l 595 794 l 595 992 l 397 992 l 397 794 l 0 794 l 0 595 l 397 595 l 397 397 l 0 397 l 0 198 l 397 198 l 397 0 l 595 0 l 595 198 "},"h":{"ha":1190,"x_min":0,"x_max":992,"o":"m 0 595 l 0 397 l 198 397 l 198 595 l 397 595 l 397 794 l 794 794 l 794 198 l 397 198 l 397 0 l 794 0 l 794 198 l 992 198 l 992 992 l 198 992 l 198 595 l 0 595 "},"i":{"ha":1190,"x_min":0,"x_max":992,"o":"m 0 198 l 0 0 l 992 0 l 992 198 l 0 198 m 198 992 l 198 794 l 794 794 l 794 992 l 198 992 "},"j":{"ha":1190,"x_min":0,"x_max":992,"o":"m 595 198 l 595 397 l 794 397 l 794 595 l 992 595 l 992 992 l 0 992 l 0 794 l 794 794 l 794 595 l 595 595 l 595 397 l 397 397 l 397 595 l 198 595 l 198 397 l 397 397 l 397 198 l 595 198 l 595 0 l 794 0 l 794 198 l 595 198 "},"k":{"ha":992,"x_min":0,"x_max":794,"o":"m 595 992 l 595 198 l 0 198 l 0 0 l 595 0 l 595 198 l 794 198 l 794 992 l 595 992 "},"l":{"ha":1190,"x_min":0,"x_max":992,"o":"m 0 992 l 0 397 l 198 397 l 198 992 l 0 992 m 198 198 l 198 0 l 794 0 l 794 198 l 992 198 l 992 992 l 794 992 l 794 198 l 198 198 "},"m":{"ha":1190,"x_min":0,"x_max":992,"o":"m 595 198 l 595 397 l 992 397 l 992 595 l 595 595 l 595 794 l 992 794 l 992 992 l 0 992 l 0 794 l 397 794 l 397 595 l 0 595 l 0 397 l 397 397 l 397 198 l 595 198 l 595 0 l 992 0 l 992 198 l 595 198 "},"n":{"ha":1190,"x_min":0,"x_max":992,"o":"m 0 198 l 0 0 l 992 0 l 992 198 l 0 198 m 0 595 l 0 397 l 992 397 l 992 595 l 0 595 m 0 992 l 0 794 l 992 794 l 992 992 l 0 992 "},"o":{"ha":1190,"x_min":0,"x_max":992,"o":"m 0 992 l 0 794 l 992 794 l 992 992 l 0 992 m 198 198 l 198 0 l 794 0 l 794 198 l 992 198 l 992 595 l 0 595 l 0 397 l 794 397 l 794 198 l 198 198 "},"p":{"ha":1190,"x_min":0,"x_max":992,"o":"m 397 198 l 397 595 l 794 595 l 794 397 l 992 397 l 992 794 l 397 794 l 397 992 l 198 992 l 198 794 l 0 794 l 0 595 l 198 595 l 198 198 l 397 198 l 397 0 l 794 0 l 794 198 l 397 198 "},"q":{"ha":1190,"x_min":0,"x_max":992,"o":"m 397 595 l 397 794 l 794 794 l 794 198 l 198 198 l 198 0 l 794 0 l 794 198 l 992 198 l 992 992 l 198 992 l 198 595 l 0 595 l 0 397 l 198 397 l 198 595 l 397 595 l 397 397 l 595 397 l 595 595 l 397 595 "},"r":{"ha":1190,"x_min":0,"x_max":992,"o":"m 794 198 l 794 595 l 992 595 l 992 992 l 0 992 l 0 794 l 794 794 l 794 595 l 595 595 l 595 397 l 198 397 l 198 198 l 0 198 l 0 0 l 198 0 l 198 198 l 794 198 l 794 0 l 992 0 l 992 198 l 794 198 "},"s":{"ha":992,"x_min":0,"x_max":794,"o":"m 595 397 l 595 595 l 198 595 l 198 992 l 0 992 l 0 0 l 198 0 l 198 397 l 595 397 l 595 198 l 794 198 l 794 397 l 595 397 "},"t":{"ha":1190,"x_min":0,"x_max":992,"o":"m 397 992 l 397 794 l 0 794 l 0 595 l 397 595 l 397 397 l 198 397 l 198 198 l 0 198 l 0 0 l 198 0 l 198 198 l 397 198 l 397 397 l 595 397 l 595 595 l 794 595 l 794 198 l 595 198 l 595 0 l 794 0 l 794 198 l 992 198 l 992 794 l 595 794 l 595 992 l 397 992 "},"u":{"ha":1190,"x_min":0,"x_max":992,"o":"m 198 198 l 198 0 l 595 0 l 595 198 l 794 198 l 794 595 l 992 595 l 992 794 l 794 794 l 794 992 l 595 992 l 595 794 l 0 794 l 0 595 l 595 595 l 595 198 l 198 198 "},"v":{"ha":1190,"x_min":0,"x_max":992,"o":"m 198 794 l 198 992 l 0 992 l 0 198 l 198 198 l 198 0 l 992 0 l 992 198 l 198 198 l 198 595 l 992 595 l 992 794 l 198 794 "},"w":{"ha":1190,"x_min":0,"x_max":992,"o":"m 0 992 l 0 794 l 992 794 l 992 992 l 0 992 m 0 198 l 0 0 l 397 0 l 397 198 l 595 198 l 595 397 l 992 397 l 992 595 l 0 595 l 0 397 l 397 397 l 397 198 l 0 198 "},"x":{"ha":1190,"x_min":0,"x_max":992,"o":"m 198 198 l 198 0 l 595 0 l 595 198 l 794 198 l 794 595 l 992 595 l 992 794 l 794 794 l 794 992 l 595 992 l 595 794 l 397 794 l 397 992 l 198 992 l 198 794 l 0 794 l 0 595 l 198 595 l 198 397 l 397 397 l 397 595 l 595 595 l 595 198 l 198 198 "},"y":{"ha":1190,"x_min":0,"x_max":992,"o":"m 0 992 l 0 595 l 397 595 l 397 992 l 0 992 m 794 794 l 794 198 l 0 198 l 0 0 l 794 0 l 794 198 l 992 198 l 992 794 l 794 794 "},"z":{"ha":1190,"x_min":0,"x_max":992,"o":"m 0 992 l 0 595 l 198 595 l 198 992 l 0 992 m 397 992 l 397 595 l 595 595 l 595 992 l 397 992 m 198 198 l 198 0 l 794 0 l 794 198 l 992 198 l 992 992 l 794 992 l 794 198 l 198 198 "},"{":{"ha":595,"x_min":0,"x_max":397,"o":"m 198 198 l 198 794 l 397 794 l 397 992 l 198 992 l 198 794 l 0 794 l 0 198 l 198 198 l 198 0 l 397 0 l 397 198 l 198 198 "},"|":{"ha":1190,"x_min":0,"x_max":992,"o":"m 0 595 l 0 397 l 992 397 l 992 595 l 0 595 "},"}":{"ha":595,"x_min":0,"x_max":397,"o":"m 0 198 l 0 0 l 198 0 l 198 198 l 397 198 l 397 794 l 198 794 l 198 992 l 0 992 l 0 794 l 198 794 l 198 198 l 0 198 "},"~":{"ha":1190,"x_min":0,"x_max":992,"o":"m 794 397 l 794 595 l 595 595 l 595 794 l 397 794 l 397 992 l 198 992 l 198 794 l 0 794 l 0 595 l 198 595 l 198 794 l 397 794 l 397 595 l 595 595 l 595 397 l 794 397 l 794 198 l 992 198 l 992 397 l 794 397 m 794 1389 l 794 1190 l 992 1190 l 992 1389 l 794 1389 m 397 1389 l 397 1190 l 595 1190 l 595 1389 l 397 1389 "},"™":{"ha":1190,"x_min":0,"x_max":992,"o":"m 198 198 l 198 0 l 794 0 l 794 198 l 992 198 l 992 794 l 0 794 l 0 595 l 794 595 l 794 198 l 198 198 m 595 1389 l 595 992 l 992 992 l 992 1389 l 595 1389 "},"ƒ":{"ha":1190,"x_min":0,"x_max":992,"o":"m 198 992 l 198 198 l 0 198 l 0 0 l 198 0 l 198 198 l 397 198 l 397 992 l 198 992 m 794 198 l 794 794 l 595 794 l 595 198 l 794 198 l 794 0 l 992 0 l 992 198 l 794 198 m 595 1389 l 595 992 l 992 992 l 992 1389 l 595 1389 "}," ":{"ha":794,"x_min":0,"x_max":0,"o":""},"–":{"ha":1190,"x_min":0,"x_max":992,"o":"m 595 1389 l 595 992 l 397 992 l 397 794 l 0 794 l 0 595 l 397 595 l 397 0 l 595 0 l 595 595 l 992 595 l 992 794 l 595 794 l 595 992 l 992 992 l 992 1389 l 595 1389 m 0 397 l 0 198 l 198 198 l 198 397 l 0 397 m 794 397 l 794 198 l 992 198 l 992 397 l 794 397 "},"‚":{"ha":1190,"x_min":0,"x_max":992,"o":"m 0 595 l 0 397 l 794 397 l 794 198 l 198 198 l 198 0 l 794 0 l 794 198 l 992 198 l 992 992 l 0 992 l 0 794 l 794 794 l 794 595 l 0 595 "},"≠":{"ha":1190,"x_min":0,"x_max":992,"o":"m 794 397 l 794 595 l 595 595 l 595 794 l 397 794 l 397 992 l 198 992 l 198 794 l 0 794 l 0 595 l 198 595 l 198 794 l 397 794 l 397 595 l 595 595 l 595 397 l 794 397 l 794 198 l 992 198 l 992 397 l 794 397 m 595 1389 l 595 992 l 992 992 l 992 1389 l 595 1389 "},"√":{"ha":1190,"x_min":0,"x_max":992,"o":"m 198 794 l 198 992 l 0 992 l 0 198 l 198 198 l 198 0 l 992 0 l 992 198 l 198 198 l 198 595 l 992 595 l 992 794 l 198 794 m 595 1389 l 595 992 l 992 992 l 992 1389 l 595 1389 "}}}
